# xmcd
#
# Track frame offsets: 
#        150
#        14062
#        35115
#        61713
#        89578
#        108062
#        131780
#        159630
#        193620
#        234117
#        281416
#
# Disc length: 4193 seconds
#
# Revision: 0
# Processed by: cddbd v1.5.2PL0 Copyright (c) Steve Scherf et al.
# Submitted via: ExactAudioCopy v0.99pb5
#
DISCID=91105f0b
DTITLE=Stan Getz - Mari Cantareti de Jazz si Blues 19
DYEAR=2013
DGENRE=Blues
TTITLE0=Night And Day
TTITLE1=Ghost Of A Chance
TTITLE2=Cherokee
TTITLE3=Get Happy
TTITLE4=Spring Can Really Hang You Up The Most
TTITLE5=Without A Song
TTITLE6=Waltz For A Lovely Wife
TTITLE7=Windows
TTITLE8="round Midnight
TTITLE9=Night In Tunisia
TTITLE10=Autumn Leaves
EXTD=
EXTT0=
EXTT1=
EXTT2=
EXTT3=
EXTT4=
EXTT5=
EXTT6=
EXTT7=
EXTT8=
EXTT9=
EXTT10=
PLAYORDER=
